<svg width="1920" height="785" viewBox="0 0 1920 785" fill="none" xmlns="http://www.w3.org/2000/svg">
<g clip-path="url(#clip0_1_2694)">
<g clip-path="url(#clip1_1_2694)">
<path d="M-67.2776 -120.065H1920V635.515L-67.2776 776.28V-120.065Z" fill="#EDFDFF"/>
<path d="M1809.8 -272.11L1428.73 -118.368C1336.49 -81.1528 1291.88 23.7915 1329.1 116.032L1471.61 469.262C1508.82 561.502 1613.77 606.109 1706.01 568.895L2087.07 415.152C2179.32 377.937 2223.92 272.993 2186.71 180.753L2044.2 -172.477C2006.98 -264.718 1902.04 -309.325 1809.8 -272.11Z" fill="#DBFBFF"/>
<path d="M190.687 598.766C187.344 596.957 182.986 597.259 179.881 599.489C179.523 593.702 175.583 588.216 170.21 586.166C164.837 584.117 158.271 585.563 154.211 589.663C154.33 581.163 147.883 573.085 139.704 571.336C131.406 569.648 122.332 574.471 119.108 582.308C116.661 578.51 112.362 576.038 107.885 575.797C103.407 575.616 98.8704 577.666 96.1243 581.223C92.6021 585.744 92.0648 591.954 92.6617 597.62C90.7514 595.149 86.6322 595.088 84.3039 597.198C81.9757 599.308 81.4384 602.986 82.5727 605.94C82.5727 605.94 82.5727 606 82.6324 606H196C195.343 603.046 193.433 600.213 190.687 598.766Z" fill="white"/>
<path d="M280.437 663.486C278.824 662.608 276.721 662.754 275.223 663.838C275.051 661.027 273.15 658.362 270.558 657.366C267.965 656.371 264.797 657.074 262.839 659.065C262.896 654.936 259.786 651.012 255.84 650.163C251.836 649.343 247.458 651.686 245.903 655.493C244.722 653.648 242.648 652.447 240.488 652.33C238.328 652.242 236.139 653.238 234.814 654.965C233.115 657.162 232.856 660.177 233.144 662.93C232.222 661.729 230.235 661.7 229.112 662.725C227.988 663.75 227.729 665.536 228.276 666.971C228.276 666.971 228.276 667 228.305 667H283C282.683 665.565 281.762 664.189 280.437 663.486Z" fill="white"/>
<path d="M61.2248 656.833C58.8495 655.541 55.753 655.756 53.5473 657.349C53.2928 653.216 50.4932 649.297 46.6757 647.833C42.8581 646.369 38.1922 647.402 35.3078 650.331C35.3926 644.259 30.8116 638.489 25.0004 637.24C19.1043 636.034 12.6569 639.479 10.3664 645.077C8.62724 642.364 5.57319 640.599 2.39189 640.427C-0.789418 640.297 -4.01313 641.762 -5.96433 644.302C-8.46696 647.532 -8.84873 651.967 -8.42455 656.015C-9.78191 654.249 -12.7087 654.206 -14.363 655.713C-16.0173 657.22 -16.399 659.847 -15.5931 661.957C-15.5931 661.957 -15.5931 662 -15.5507 662H65C64.5334 659.89 63.176 657.866 61.2248 656.833Z" fill="white"/>
<path d="M89.4366 509.486C87.8237 508.608 85.7212 508.754 84.2235 509.838C84.0507 507.027 82.1497 504.362 79.5576 503.366C76.9654 502.371 73.7972 503.074 71.8386 505.065C71.8962 500.936 68.7856 497.012 64.8398 496.163C60.8363 495.343 56.4584 497.686 54.9031 501.493C53.7222 499.648 51.6485 498.447 49.4883 498.33C47.3282 498.242 45.1392 499.238 43.8143 500.965C42.115 503.162 41.8558 506.177 42.1438 508.93C41.2222 507.729 39.2348 507.7 38.1115 508.725C36.9883 509.75 36.7291 511.536 37.2763 512.971C37.2763 512.971 37.2763 513 37.3051 513H92C91.6832 511.565 90.7615 510.189 89.4366 509.486Z" fill="white"/>
</g>
</g>
<g clip-path="url(#clip2_1_2694)">
<path d="M63.3546 769.987C63.3546 765.317 65.936 761.23 69.6831 759.062V757.477H75.8451C82.7565 757.477 88.3356 763.065 88.3356 769.987C88.3356 776.91 82.7565 782.498 75.8451 782.498H69.6831V780.913C65.936 778.745 63.3546 774.658 63.3546 769.987Z" fill="#191919"/>
<path d="M57.0261 769.987C57.0261 765.317 59.6075 761.23 63.3546 759.062V757.477H69.5166C76.428 757.477 82.0071 763.065 82.0071 769.987C82.0071 776.91 76.428 782.498 69.5166 782.498H63.3546V780.913C59.5242 778.745 57.0261 774.658 57.0261 769.987Z" fill="#191919"/>
<path d="M89.0018 769.987C89.0018 765.317 91.5832 761.23 95.3303 759.062V757.477H101.492C108.404 757.477 113.983 763.065 113.983 769.987C113.983 776.91 108.404 782.498 101.492 782.498H95.3303V780.913C91.5832 778.745 89.0018 774.658 89.0018 769.987Z" fill="#191919"/>
<path d="M82.6733 769.987C82.6733 765.317 85.2547 761.23 89.0019 759.062V757.477H95.1638C102.075 757.477 107.654 763.065 107.654 769.987C107.654 776.91 102.075 782.498 95.1638 782.498H89.0019V780.913C85.1714 778.745 82.6733 774.658 82.6733 769.987Z" fill="#191919"/>
<path d="M89.0017 782.498C82.1034 782.498 76.5112 776.897 76.5112 769.987C76.5112 763.078 82.1034 757.477 89.0017 757.477C95.9 757.477 101.492 763.078 101.492 769.987C101.492 776.897 95.9 782.498 89.0017 782.498Z" fill="#191919"/>
<path d="M89.0017 777.911C84.6328 777.911 81.0911 774.363 81.0911 769.987C81.0911 765.611 84.6328 762.064 89.0017 762.064C93.3706 762.064 96.9124 765.611 96.9124 769.987C96.9124 774.363 93.3706 777.911 89.0017 777.911Z" fill="#191919"/>
<path d="M89.0017 777.16C85.0467 777.16 81.8405 773.949 81.8405 769.987C81.8405 766.026 85.0467 762.815 89.0017 762.815C92.9568 762.815 96.163 766.026 96.163 769.987C96.163 773.949 92.9568 777.16 89.0017 777.16Z" fill="#191919"/>
<path d="M90.9169 762.981C93.9979 763.816 96.163 766.651 96.163 769.904C96.163 773.24 93.9147 775.992 90.9169 776.826C87.836 775.992 85.671 773.157 85.671 769.904C85.671 766.651 87.836 763.816 90.9169 762.981Z" fill="#191919"/>
<path d="M90.9169 773.157C89.1693 773.157 87.7527 771.738 87.7527 769.987C87.7527 768.237 89.1693 766.818 90.9169 766.818C92.6645 766.818 94.0812 768.237 94.0812 769.987C94.0812 771.738 92.6645 773.157 90.9169 773.157Z" fill="#191919"/>
<path d="M63.3546 782.498C56.4563 782.498 50.8641 776.897 50.8641 769.987C50.8641 763.078 56.4563 757.477 63.3546 757.477C70.2529 757.477 75.8451 763.078 75.8451 769.987C75.8451 776.897 70.2529 782.498 63.3546 782.498Z" fill="#191919"/>
<path d="M63.3546 777.911C58.9857 777.911 55.444 774.363 55.444 769.987C55.444 765.611 58.9857 762.064 63.3546 762.064C67.7235 762.064 71.2653 765.611 71.2653 769.987C71.2653 774.363 67.7235 777.911 63.3546 777.911Z" fill="#191919"/>
<path d="M63.3547 777.16C59.3996 777.16 56.1935 773.949 56.1935 769.987C56.1935 766.026 59.3996 762.815 63.3547 762.815C67.3097 762.815 70.5159 766.026 70.5159 769.987C70.5159 773.949 67.3097 777.16 63.3547 777.16Z" fill="#191919"/>
<path d="M65.2699 762.981C68.3509 763.816 70.5159 766.651 70.5159 769.904C70.5159 773.24 68.2676 775.992 65.2699 776.826C62.1889 775.992 60.0239 773.157 60.0239 769.904C60.0239 766.651 62.1889 763.816 65.2699 762.981Z" fill="#191919"/>
<path d="M65.2698 773.157C63.5223 773.157 62.1056 771.738 62.1056 769.987C62.1056 768.237 63.5223 766.818 65.2698 766.818C67.0174 766.818 68.4341 768.237 68.4341 769.987C68.4341 771.738 67.0174 773.157 65.2698 773.157Z" fill="#191919"/>
<path opacity="0.2" d="M-14.586 785H304.587C306.419 785 308.001 783.499 308.001 781.58C308.001 779.746 306.503 778.161 304.587 778.161H-14.586C-16.4179 778.161 -18.0001 779.662 -18.0001 781.58C-18.0001 783.415 -16.5012 785 -14.586 785Z" fill="#292929"/>
<path d="M7.31409 755.559H167.942L150.039 771.989H7.31409V755.559Z" fill="#191919"/>
<path d="M185.595 745.3H218.32V755.809H185.595V745.3Z" fill="#424242"/>
<path d="M185.595 745.3H221.734V693.089C221.734 689.169 218.57 686 214.656 686H178.933L185.595 745.3Z" fill="#E2413E"/>
<path d="M-18 745.3H185.928V693.089C185.928 689.169 182.764 686 178.85 686H-10.9221C-14.8358 686 -18 689.169 -18 693.089V745.3Z" fill="#C93A37"/>
<path d="M194.172 769.987C194.172 765.317 196.753 761.23 200.5 759.062V757.477H206.662C213.574 757.477 219.153 763.065 219.153 769.987C219.153 776.91 213.574 782.498 206.662 782.498H200.5V780.913C196.753 778.745 194.172 774.658 194.172 769.987Z" fill="#191919"/>
<path d="M187.843 769.987C187.843 765.317 190.424 761.23 194.172 759.062V757.477H200.333C207.245 757.477 212.824 763.065 212.824 769.987C212.824 776.91 207.245 782.498 200.333 782.498H194.172V780.913C190.341 778.745 187.843 774.658 187.843 769.987Z" fill="#191919"/>
<path d="M219.819 769.987C219.819 765.317 222.4 761.23 226.147 759.062V757.477H232.309C239.221 757.477 244.8 763.065 244.8 769.987C244.8 776.91 239.221 782.498 232.309 782.498H226.147V780.913C222.4 778.745 219.819 774.658 219.819 769.987Z" fill="#191919"/>
<path d="M213.49 769.987C213.49 765.317 216.072 761.23 219.819 759.062V757.477H225.981C232.892 757.477 238.471 763.065 238.471 769.987C238.471 776.91 232.892 782.498 225.981 782.498H219.819V780.913C215.988 778.745 213.49 774.658 213.49 769.987Z" fill="#191919"/>
<path d="M219.819 782.498C212.921 782.498 207.328 776.897 207.328 769.987C207.328 763.078 212.921 757.477 219.819 757.477C226.717 757.477 232.309 763.078 232.309 769.987C232.309 776.897 226.717 782.498 219.819 782.498Z" fill="#191919"/>
<path d="M219.819 777.911C215.45 777.911 211.908 774.363 211.908 769.987C211.908 765.611 215.45 762.064 219.819 762.064C224.188 762.064 227.729 765.611 227.729 769.987C227.729 774.363 224.188 777.911 219.819 777.911Z" fill="#191919"/>
<path d="M219.819 777.16C215.864 777.16 212.658 773.949 212.658 769.987C212.658 766.026 215.864 762.815 219.819 762.815C223.774 762.815 226.98 766.026 226.98 769.987C226.98 773.949 223.774 777.16 219.819 777.16Z" fill="#191919"/>
<path d="M221.734 762.981C224.815 763.816 226.98 766.651 226.98 769.904C226.98 773.24 224.732 775.992 221.734 776.826C218.653 775.992 216.488 773.157 216.488 769.904C216.488 766.651 218.653 763.816 221.734 762.981Z" fill="#191919"/>
<path d="M221.734 773.157C219.986 773.157 218.57 771.738 218.57 769.987C218.57 768.237 219.986 766.818 221.734 766.818C223.482 766.818 224.898 768.237 224.898 769.987C224.898 771.738 223.482 773.157 221.734 773.157Z" fill="#191919"/>
<path d="M194.172 782.498C187.273 782.498 181.681 776.897 181.681 769.987C181.681 763.078 187.273 757.477 194.172 757.477C201.07 757.477 206.662 763.078 206.662 769.987C206.662 776.897 201.07 782.498 194.172 782.498Z" fill="#212121"/>
<path d="M194.172 777.911C189.803 777.911 186.261 774.363 186.261 769.987C186.261 765.611 189.803 762.064 194.172 762.064C198.541 762.064 202.082 765.611 202.082 769.987C202.082 774.363 198.541 777.911 194.172 777.911Z" fill="#212121"/>
<path d="M194.172 777.16C190.217 777.16 187.01 773.949 187.01 769.987C187.01 766.026 190.217 762.815 194.172 762.815C198.127 762.815 201.333 766.026 201.333 769.987C201.333 773.949 198.127 777.16 194.172 777.16Z" fill="#212121"/>
<path d="M196.087 762.981C199.168 763.816 201.333 766.651 201.333 769.904C201.333 773.24 199.084 775.992 196.087 776.826C193.006 775.992 190.841 773.157 190.841 769.904C190.841 766.651 193.006 763.816 196.087 762.981Z" fill="#212121"/>
<path d="M196.087 773.157C194.339 773.157 192.922 771.738 192.922 769.987C192.922 768.237 194.339 766.818 196.087 766.818C197.834 766.818 199.251 768.237 199.251 769.987C199.251 771.738 197.834 773.157 196.087 773.157Z" fill="#212121"/>
<path d="M147.957 755.559H211.658V772.072H147.957C146.291 772.072 144.959 770.738 144.959 769.07V758.561C144.959 756.893 146.291 755.559 147.957 755.559Z" fill="#212121"/>
<path d="M159.948 769.987C159.948 765.317 162.529 761.23 166.276 759.062V757.477H172.438C179.35 757.477 184.929 763.065 184.929 769.987C184.929 776.91 179.35 782.498 172.438 782.498H166.276V780.913C162.529 778.745 159.948 774.658 159.948 769.987Z" fill="#212121"/>
<path d="M153.619 769.987C153.619 765.317 156.201 761.23 159.948 759.062V757.477H166.11C173.021 757.477 178.6 763.065 178.6 769.987C178.6 776.91 173.021 782.498 166.11 782.498H159.948V780.913C156.201 778.745 153.619 774.658 153.619 769.987Z" fill="#292929"/>
<path d="M185.595 769.987C185.595 765.317 188.176 761.23 191.923 759.062V757.477H198.085C204.997 757.477 210.576 763.065 210.576 769.987C210.576 776.91 204.997 782.498 198.085 782.498H191.923V780.913C188.176 778.745 185.595 774.658 185.595 769.987Z" fill="#191919"/>
<path d="M179.266 769.987C179.266 765.317 181.848 761.23 185.595 759.062V757.477H191.757C198.668 757.477 204.247 763.065 204.247 769.987C204.247 776.91 198.668 782.498 191.757 782.498H185.595V780.913C181.848 778.745 179.266 774.658 179.266 769.987Z" fill="#292929"/>
<path d="M245.216 697.676C245.716 697.176 246.465 697.176 246.881 697.676L247.381 698.177C249.213 700.012 250.212 702.43 250.212 705.016V719.195H247.797V705.6C247.797 703.265 246.881 701.096 245.299 699.511L245.216 699.428C244.716 698.928 244.716 698.177 245.216 697.676Z" fill="#C2C2C2"/>
<path d="M280.522 769.987C280.522 765.317 283.104 761.23 286.851 759.062V757.477H293.013C299.924 757.477 305.503 763.065 305.503 769.987C305.503 776.91 299.924 782.498 293.013 782.498H286.851V780.913C283.021 778.745 280.522 774.658 280.522 769.987Z" fill="#191919"/>
<path d="M286.851 782.498C279.953 782.498 274.361 776.897 274.361 769.987C274.361 763.078 279.953 757.477 286.851 757.477C293.749 757.477 299.342 763.078 299.342 769.987C299.342 776.897 293.749 782.498 286.851 782.498Z" fill="#191919"/>
<path d="M286.851 777.911C282.482 777.911 278.94 774.363 278.94 769.987C278.94 765.611 282.482 762.064 286.851 762.064C291.22 762.064 294.762 765.611 294.762 769.987C294.762 774.363 291.22 777.911 286.851 777.911Z" fill="#191919"/>
<path d="M286.851 777.16C282.896 777.16 279.69 773.949 279.69 769.987C279.69 766.026 282.896 762.815 286.851 762.815C290.806 762.815 294.012 766.026 294.012 769.987C294.012 773.949 290.806 777.16 286.851 777.16Z" fill="#191919"/>
<path d="M288.766 762.981C291.847 763.816 294.012 766.651 294.012 769.904C294.012 773.24 291.764 775.992 288.766 776.826C285.685 775.992 283.52 773.157 283.52 769.904C283.437 766.651 285.685 763.816 288.766 762.981Z" fill="#191919"/>
<path d="M288.766 773.157C287.019 773.157 285.602 771.738 285.602 769.987C285.602 768.237 287.019 766.818 288.766 766.818C290.514 766.818 291.93 768.237 291.93 769.987C291.93 771.738 290.514 773.157 288.766 773.157Z" fill="#191919"/>
<path d="M231.726 707.351C239.97 707.351 247.464 711.855 251.461 719.028L251.545 719.111H234.225H231.726H207.578V707.351H231.726Z" fill="#E2413E"/>
<path d="M288.1 759.562C284.436 759.562 281.189 761.147 278.94 763.565C281.771 758.895 286.934 755.725 292.846 755.725C301.84 755.725 309.084 762.981 309.084 771.989H300.59C300.59 765.15 295.011 759.562 288.1 759.562Z" fill="#B5292A"/>
<path d="M255.125 769.987C255.125 765.317 257.707 761.23 261.454 759.062V757.477H267.616C274.527 757.477 280.106 763.065 280.106 769.987C280.106 776.91 274.527 782.498 267.616 782.498H261.454V780.913C257.707 778.745 255.125 774.658 255.125 769.987Z" fill="#292929"/>
<path d="M264.118 728.953L270.031 742.798C270.364 743.465 270.946 743.965 271.696 744.049L298.342 747.552C299.675 747.719 300.674 748.886 300.674 750.221V772.072H282.937H245.216V728.953H264.118Z" fill="#E2413E"/>
<path d="M299.258 747.885C300.091 748.302 300.674 749.22 300.674 750.221V772.072H282.937L280.189 747.885H299.258Z" fill="#FC4845"/>
<path d="M280.606 747.552L253.959 744.049C253.21 743.965 252.544 743.465 252.294 742.798L246.299 728.953H227.396V772.072H282.937V750.221C282.937 748.886 281.938 747.719 280.606 747.552Z" fill="#C93A37"/>
<path d="M195.92 768.736H300.591V775.742H195.92V768.736Z" fill="#292929"/>
<path d="M247.381 771.989C247.381 771.906 247.381 771.906 247.381 771.822C247.381 761.981 255.375 754.057 265.118 754.057C274.86 754.057 282.937 762.064 282.937 771.906C282.937 771.989 282.937 771.989 282.937 772.072H247.381V771.989Z" fill="#B5292A"/>
<path d="M261.454 782.498C254.555 782.498 248.963 776.897 248.963 769.987C248.963 763.078 254.555 757.477 261.454 757.477C268.352 757.477 273.944 763.078 273.944 769.987C273.944 776.897 268.352 782.498 261.454 782.498Z" fill="#424242"/>
<path d="M261.454 777.911C257.085 777.911 253.543 774.363 253.543 769.987C253.543 765.611 257.085 762.064 261.454 762.064C265.823 762.064 269.364 765.611 269.364 769.987C269.364 774.363 265.823 777.911 261.454 777.911Z" fill="#D1D1D1"/>
<path d="M261.454 777.16C257.499 777.16 254.292 773.949 254.292 769.987C254.292 766.026 257.499 762.815 261.454 762.815C265.409 762.815 268.615 766.026 268.615 769.987C268.615 773.949 265.409 777.16 261.454 777.16Z" fill="#656565"/>
<path d="M263.369 762.981C266.45 763.816 268.615 766.651 268.615 769.904C268.615 773.24 266.366 775.992 263.369 776.826C260.288 775.992 258.123 773.157 258.123 769.904C258.123 766.651 260.371 763.816 263.369 762.981Z" fill="#424242"/>
<path d="M263.369 773.157C261.621 773.157 260.204 771.738 260.204 769.987C260.204 768.237 261.621 766.818 263.369 766.818C265.116 766.818 266.533 768.237 266.533 769.987C266.533 771.738 265.116 773.157 263.369 773.157Z" fill="#D1D1D1"/>
<path d="M227.396 719.195H245.133H250.879C256.957 719.195 262.286 723.198 264.035 728.953H245.133V728.369L227.396 719.195Z" fill="#E2413E"/>
<path d="M274.777 774.992H308.751L310 767.402H272.862L274.777 774.992Z" fill="#D1D1D1"/>
<path d="M207.578 719.195H227.396V759.395H207.578V719.195Z" fill="#C93A37"/>
<path d="M207.661 719.195V707.351C215.905 707.351 223.399 711.855 227.396 719.028L227.479 719.111H207.661V719.195Z" fill="#C93A37"/>
<path d="M220.735 719.195H224.232C225.981 719.195 227.479 720.612 227.479 722.447V759.395H217.57V722.364C217.487 720.612 218.986 719.195 220.735 719.195Z" fill="#D1D1D1"/>
<path d="M185.595 782.498C178.696 782.498 173.104 776.897 173.104 769.987C173.104 763.078 178.696 757.477 185.595 757.477C192.493 757.477 198.085 763.078 198.085 769.987C198.085 776.897 192.493 782.498 185.595 782.498Z" fill="#424242"/>
<path d="M185.595 777.911C181.226 777.911 177.684 774.363 177.684 769.987C177.684 765.611 181.226 762.064 185.595 762.064C189.964 762.064 193.505 765.611 193.505 769.987C193.505 774.363 189.964 777.911 185.595 777.911Z" fill="#D1D1D1"/>
<path d="M185.595 777.16C181.64 777.16 178.433 773.949 178.433 769.987C178.433 766.026 181.64 762.815 185.595 762.815C189.55 762.815 192.756 766.026 192.756 769.987C192.756 773.949 189.55 777.16 185.595 777.16Z" fill="#656565"/>
<path d="M187.51 762.981C190.591 763.816 192.756 766.651 192.756 769.904C192.756 773.24 190.508 775.992 187.51 776.826C184.429 775.992 182.264 773.157 182.264 769.904C182.264 766.651 184.512 763.816 187.51 762.981Z" fill="#424242"/>
<path d="M187.51 773.157C185.762 773.157 184.346 771.738 184.346 769.987C184.346 768.237 185.762 766.818 187.51 766.818C189.258 766.818 190.674 768.237 190.674 769.987C190.674 771.738 189.258 773.157 187.51 773.157Z" fill="#D1D1D1"/>
<path d="M159.948 782.498C153.049 782.498 147.457 776.897 147.457 769.987C147.457 763.078 153.049 757.477 159.948 757.477C166.846 757.477 172.438 763.078 172.438 769.987C172.438 776.897 166.846 782.498 159.948 782.498Z" fill="#424242"/>
<path d="M159.948 777.911C155.579 777.911 152.037 774.363 152.037 769.987C152.037 765.611 155.579 762.064 159.948 762.064C164.317 762.064 167.858 765.611 167.858 769.987C167.858 774.363 164.317 777.911 159.948 777.911Z" fill="#D1D1D1"/>
<path d="M159.948 777.16C155.993 777.16 152.787 773.949 152.787 769.987C152.787 766.026 155.993 762.815 159.948 762.815C163.903 762.815 167.109 766.026 167.109 769.987C167.109 773.949 163.903 777.16 159.948 777.16Z" fill="#656565"/>
<path d="M161.863 762.981C164.944 763.816 167.109 766.651 167.109 769.904C167.109 773.24 164.861 775.992 161.863 776.826C158.782 775.992 156.617 773.157 156.617 769.904C156.617 766.651 158.865 763.816 161.863 762.981Z" fill="#424242"/>
<path d="M161.863 773.157C160.115 773.157 158.699 771.738 158.699 769.987C158.699 768.237 160.115 766.818 161.863 766.818C163.611 766.818 165.027 768.237 165.027 769.987C165.027 771.738 163.611 773.157 161.863 773.157Z" fill="#D1D1D1"/>
<path d="M-18 755.559H142.544L124.641 772.072H-13.5867C-16.0848 772.072 -18.0833 770.071 -18.0833 767.569V755.559H-18Z" fill="#212121"/>
<path d="M-18 745.3H185.928V755.559H-18V745.3Z" fill="#292929"/>
<path d="M17.9725 769.987C17.9725 765.317 20.5539 761.23 24.301 759.062V757.477H30.463C37.3744 757.477 42.9535 763.065 42.9535 769.987C42.9535 776.91 37.3744 782.498 30.463 782.498H24.301V780.913C20.5539 778.745 17.9725 774.658 17.9725 769.987Z" fill="#212121"/>
<path d="M11.644 769.987C11.644 765.317 14.2254 761.23 17.9725 759.062V757.477H24.1345C31.0459 757.477 36.625 763.065 36.625 769.987C36.625 776.91 31.0459 782.498 24.1345 782.498H17.9725V780.913C14.2254 778.745 11.644 774.658 11.644 769.987Z" fill="#292929"/>
<path d="M43.6197 769.987C43.6197 765.317 46.2011 761.23 49.9483 759.062V757.477H56.1102C63.0216 757.477 68.6007 763.065 68.6007 769.987C68.6007 776.91 63.0216 782.498 56.1102 782.498H49.9483V780.913C46.2011 778.745 43.6197 774.658 43.6197 769.987Z" fill="#212121"/>
<path d="M37.2911 769.987C37.2911 765.317 39.8725 761.23 43.6196 759.062V757.477H49.7816C56.693 757.477 62.2721 763.065 62.2721 769.987C62.2721 776.91 56.693 782.498 49.7816 782.498H43.6196V780.913C39.8725 778.745 37.2911 774.658 37.2911 769.987Z" fill="#292929"/>
<path d="M43.6198 782.498C36.7214 782.498 31.1293 776.897 31.1293 769.987C31.1293 763.078 36.7214 757.477 43.6198 757.477C50.5181 757.477 56.1102 763.078 56.1102 769.987C56.1102 776.897 50.5181 782.498 43.6198 782.498Z" fill="#424242"/>
<path d="M43.6198 777.911C39.2508 777.911 35.7091 774.363 35.7091 769.987C35.7091 765.611 39.2508 762.064 43.6198 762.064C47.9887 762.064 51.5304 765.611 51.5304 769.987C51.5304 774.363 47.9887 777.911 43.6198 777.911Z" fill="#D1D1D1"/>
<path d="M43.6198 777.16C39.6648 777.16 36.4586 773.949 36.4586 769.987C36.4586 766.026 39.6648 762.815 43.6198 762.815C47.5748 762.815 50.781 766.026 50.781 769.987C50.781 773.949 47.5748 777.16 43.6198 777.16Z" fill="#656565"/>
<path d="M45.535 762.981C48.616 763.816 50.781 766.651 50.781 769.904C50.781 773.24 48.5327 775.992 45.535 776.826C42.454 775.992 40.289 773.157 40.289 769.904C40.289 766.651 42.5373 763.816 45.535 762.981Z" fill="#424242"/>
<path d="M45.5349 773.157C43.7874 773.157 42.3707 771.738 42.3707 769.987C42.3707 768.237 43.7874 766.818 45.5349 766.818C47.2825 766.818 48.6992 768.237 48.6992 769.987C48.6992 771.738 47.2825 773.157 45.5349 773.157Z" fill="#D1D1D1"/>
<path d="M17.9725 782.498C11.0742 782.498 5.48205 776.897 5.48205 769.987C5.48205 763.078 11.0742 757.477 17.9725 757.477C24.8708 757.477 30.463 763.078 30.463 769.987C30.463 776.897 24.8708 782.498 17.9725 782.498Z" fill="#424242"/>
<path d="M17.9725 777.911C13.6036 777.911 10.0619 774.363 10.0619 769.987C10.0619 765.611 13.6036 762.064 17.9725 762.064C22.3415 762.064 25.8832 765.611 25.8832 769.987C25.8832 774.363 22.3415 777.911 17.9725 777.911Z" fill="#D1D1D1"/>
<path d="M17.9726 777.16C14.0175 777.16 10.8114 773.949 10.8114 769.987C10.8114 766.026 14.0175 762.815 17.9726 762.815C21.9276 762.815 25.1338 766.026 25.1338 769.987C25.1338 773.949 21.9276 777.16 17.9726 777.16Z" fill="#656565"/>
<path d="M19.8878 762.981C22.9688 763.816 25.1338 766.651 25.1338 769.904C25.1338 773.24 22.8855 775.992 19.8878 776.826C16.8068 775.992 14.6418 773.157 14.6418 769.904C14.6418 766.651 16.8901 763.816 19.8878 762.981Z" fill="#424242"/>
<path d="M19.8878 773.157C18.1402 773.157 16.7235 771.738 16.7235 769.987C16.7235 768.237 18.1402 766.818 19.8878 766.818C21.6353 766.818 23.052 768.237 23.052 769.987C23.052 771.738 21.6353 773.157 19.8878 773.157Z" fill="#D1D1D1"/>
<path d="M202.332 759.312H227.396V771.989H202.249C198.751 771.989 195.92 769.153 195.92 765.65C196.003 762.147 198.835 759.312 202.332 759.312Z" fill="#C2C2C2"/>
<path d="M218.653 697.676C219.153 697.176 219.902 697.176 220.318 697.676L220.818 698.177C222.65 700.012 223.649 702.43 223.649 705.016V719.195H221.234V705.6C221.234 703.265 220.318 701.096 218.736 699.511L218.653 699.428C218.237 698.928 218.237 698.177 218.653 697.676Z" fill="#C2C2C2"/>
<path d="M262.37 729.787H248.963C248.464 729.787 248.131 730.287 248.297 730.788L253.543 743.131H268.865L263.869 730.871C263.619 730.204 263.036 729.787 262.37 729.787Z" fill="#71211F"/>
<path d="M250.712 743.131L245.632 730.788C245.383 730.204 244.8 729.787 244.134 729.787H229.645V743.131H250.712Z" fill="#71211F"/>
<path d="M238.971 725.116H262.286C263.036 726.284 263.702 727.535 264.118 728.869H245.216V728.286L238.971 725.116Z" fill="#D1D1D1"/>
<path d="M227.396 728.953V719.195H233.142C239.221 719.195 244.55 723.198 246.299 728.953H227.396Z" fill="#C93A37"/>
<path d="M246.382 728.953H227.48V725.2H244.55C245.299 726.284 245.965 727.535 246.382 728.953Z" fill="#C2C2C2"/>
<path d="M284.603 767.402H299.342V750.221C299.342 749.804 299.008 749.47 298.592 749.47H285.352C284.936 749.47 284.603 749.804 284.603 750.221V767.402Z" fill="#D1D1D1"/>
<path d="M284.603 751.472H299.342V753.473H284.603V751.472Z" fill="#212121"/>
<path d="M284.603 755.475H299.342V757.477H284.603V755.475Z" fill="#212121"/>
<path d="M284.603 759.395H299.342V761.397H284.603V759.395Z" fill="#212121"/>
<path d="M284.603 763.398H299.342V765.4H284.603V763.398Z" fill="#212121"/>
<path d="M299.091 751.222H299.342V767.318H299.091V751.222Z" fill="#D1D1D1"/>
<path d="M284.602 751.222H284.853V767.318H284.602V751.222Z" fill="#D1D1D1"/>
<path d="M295.761 751.472V767.402" stroke="#D1D1D1" stroke-width="0.333" stroke-miterlimit="10"/>
<path d="M289.266 751.472V767.402" stroke="#D1D1D1" stroke-width="0.333" stroke-miterlimit="10"/>
<path d="M303.422 762.231H305.836C306.752 763.398 307.419 764.733 308.001 766.151H301.09V764.733C301.007 763.315 302.089 762.231 303.422 762.231Z" fill="white"/>
<path d="M280.189 766.151H274.277C274.111 766.151 273.944 766.067 273.944 765.901L273.028 762.564C272.945 762.398 273.111 762.231 273.278 762.231H278.108C279.44 762.231 280.522 763.315 280.522 764.65V765.817C280.522 765.984 280.356 766.151 280.189 766.151Z" fill="white"/>
<path d="M273.195 762.231H274.86L275.943 766.151H274.194C274.027 766.151 273.861 766.067 273.861 765.901L272.945 762.564C272.945 762.398 273.028 762.231 273.195 762.231Z" fill="#E9662C"/>
<path d="M306.336 766.151L305.836 762.231C306.752 763.398 307.419 764.733 308.001 766.151H306.336Z" fill="#E9662C"/>
<path d="M227.396 771.989C223.901 771.989 221.068 769.151 221.068 765.65C221.068 762.15 223.901 759.312 227.396 759.312C230.891 759.312 233.725 762.15 233.725 765.65C233.725 769.151 230.891 771.989 227.396 771.989Z" fill="#D1D1D1"/>
<path d="M282.937 767.402V774.992H274.777L272.862 767.402H282.937Z" fill="#C2C2C2"/>
<path d="M267.699 741.88L262.786 730.537H249.962V734.708L253.043 741.88H267.699Z" fill="#8D4D4C"/>
<path d="M268.865 743.131L268.698 742.965C267.699 741.714 266.283 740.963 264.618 740.963H260.038C259.122 740.045 257.79 739.462 256.458 739.462H251.961L253.543 743.131H268.865Z" fill="#2D0A0B"/>
<path d="M249.13 739.462L247.631 743.131H250.712L249.13 739.462Z" fill="#2D0A0B"/>
<path d="M254.292 737.543C255.542 737.543 256.541 738.127 257.04 739.045C257.457 739.795 257.373 740.629 257.04 741.463C256.707 742.131 256.208 742.714 255.625 743.131H254.626C254.709 743.131 254.792 743.048 254.875 742.965C255.625 742.548 256.291 741.964 256.624 741.213C256.957 740.546 256.957 739.795 256.624 739.211C256.208 738.461 255.375 737.96 254.376 737.96C253.793 737.96 253.127 738.127 252.544 738.377C252.294 738.544 252.044 738.628 251.878 738.794L251.711 738.294C251.878 738.127 252.127 737.96 252.377 737.877C252.877 737.71 253.626 737.543 254.292 737.543Z" fill="#2D0A0B"/>
<path opacity="0.1" d="M260.121 729.787L265.784 735.458L268.865 743.131H265.534L252.294 729.787H260.121Z" fill="white"/>
<path opacity="0.1" d="M250.129 735.041L248.297 730.704C248.131 730.204 248.464 729.703 248.963 729.703H249.879L263.202 743.048H258.206L250.129 735.041Z" fill="white"/>
<path opacity="0.1" d="M242.718 729.787L246.881 734.04L250.712 743.131H248.131L234.807 729.787H242.718Z" fill="white"/>
<path opacity="0.1" d="M229.561 731.955V729.787H232.393L245.716 743.131H240.803L229.561 731.955Z" fill="white"/>
<path opacity="0.1" d="M229.561 743.131V737.627L235.057 743.131H229.561Z" fill="white"/>
<path d="M167.942 745.3L138.298 729.787H-18V737.543H136.216L152.037 745.3H167.942Z" fill="white"/>
<path opacity="0.2" d="M251.545 743.131L245.466 728.953H228.396V757.477C232.559 757.477 235.973 760.896 235.973 765.067V766.818H246.382V758.728C246.382 755.809 248.713 753.473 251.628 753.473V743.131H251.545Z" stroke="#191919" stroke-width="0.5432" stroke-miterlimit="10"/>
<path d="M230.144 746.801H234.224C234.558 746.801 234.807 746.551 234.807 746.217V745.217C234.807 744.883 234.558 744.633 234.224 744.633H230.144C229.811 744.633 229.561 744.883 229.561 745.217V746.217C229.561 746.551 229.811 746.801 230.144 746.801Z" fill="#D1D1D1"/>
<g opacity="0.2">
<path d="M279.606 749.053C279.606 749.053 278.024 748.803 275.693 748.386C274.527 748.219 273.111 747.969 271.613 747.802C270.114 747.635 268.532 747.385 266.949 747.135C265.367 746.968 263.785 746.718 262.286 746.551C260.787 746.384 259.372 746.217 258.206 746.051C255.791 745.8 254.209 745.634 254.209 745.634C254.209 745.634 255.791 745.884 258.123 746.301C259.289 746.468 260.704 746.718 262.203 746.885C263.702 747.051 265.284 747.302 266.866 747.552C268.448 747.719 270.03 747.969 271.529 748.136C273.028 748.302 274.444 748.469 275.609 748.636C278.024 748.886 279.606 749.053 279.606 749.053Z" fill="white"/>
</g>
<g opacity="0.2">
<path d="M260.621 724.616C260.621 724.616 259.705 724.532 258.289 724.449C257.623 724.449 256.79 724.366 255.874 724.366C255.042 724.366 254.043 724.366 253.127 724.366C252.211 724.366 251.295 724.366 250.379 724.366C249.546 724.366 248.713 724.449 247.964 724.449C246.548 724.532 245.632 724.616 245.632 724.616C245.632 724.616 246.548 724.699 247.964 724.783C248.63 724.783 249.463 724.866 250.379 724.866C251.211 724.866 252.211 724.866 253.127 724.866C254.043 724.866 254.958 724.866 255.874 724.866C256.707 724.866 257.54 724.783 258.289 724.783C259.622 724.699 260.621 724.616 260.621 724.616Z" fill="white"/>
</g>
<g opacity="0.2">
<path d="M299.092 748.553C299.092 748.553 298.092 748.469 296.677 748.386C295.927 748.386 295.095 748.302 294.179 748.302C293.263 748.302 292.263 748.302 291.347 748.302C290.348 748.302 289.432 748.302 288.516 748.302C287.6 748.302 286.768 748.386 286.018 748.386C284.519 748.469 283.603 748.553 283.603 748.553C283.603 748.553 284.603 748.636 286.018 748.719C286.768 748.719 287.6 748.803 288.516 748.803C289.432 748.803 290.431 748.803 291.347 748.803C292.347 748.803 293.263 748.803 294.179 748.803C295.095 748.803 295.927 748.719 296.677 748.719C298.092 748.636 299.092 748.553 299.092 748.553Z" fill="white"/>
</g>
<g opacity="0.2">
<path d="M247.381 767.902C247.381 767.902 246.548 767.819 245.383 767.735C244.8 767.735 244.05 767.652 243.301 767.652C242.551 767.652 241.719 767.652 240.886 767.652C240.053 767.652 239.304 767.652 238.471 767.652C237.722 767.652 236.972 767.735 236.389 767.735C235.14 767.819 234.391 767.902 234.391 767.902C234.391 767.902 235.224 767.986 236.389 768.069C236.972 768.069 237.722 768.152 238.471 768.152C239.221 768.152 240.053 768.152 240.886 768.152C241.719 768.152 242.468 768.152 243.301 768.152C244.05 768.152 244.8 768.069 245.383 768.069C246.548 767.986 247.381 767.902 247.381 767.902Z" fill="white"/>
</g>
<g opacity="0.2">
<path d="M248.963 774.408C248.963 774.408 246.299 774.324 242.385 774.241C240.386 774.241 238.055 774.158 235.64 774.158C233.142 774.158 230.477 774.158 227.896 774.158C225.231 774.158 222.567 774.158 220.152 774.158C217.654 774.158 215.322 774.241 213.407 774.241C209.41 774.324 206.829 774.408 206.829 774.408C206.829 774.408 209.493 774.491 213.407 774.575C215.405 774.575 217.737 774.658 220.152 774.658C222.65 774.658 225.314 774.658 227.896 774.658C230.56 774.658 233.225 774.658 235.64 774.658C238.138 774.658 240.47 774.575 242.385 774.575C246.299 774.491 248.963 774.408 248.963 774.408Z" fill="white"/>
</g>
<g opacity="0.2">
<path d="M243.717 712.105C243.717 712.105 242.552 712.022 240.803 711.939C239.887 711.939 238.888 711.855 237.805 711.855C236.723 711.855 235.557 711.855 234.308 711.855C233.142 711.855 231.976 711.855 230.81 711.855C229.728 711.855 228.645 711.939 227.813 711.939C226.064 712.022 224.898 712.105 224.898 712.105C224.898 712.105 226.064 712.189 227.813 712.272C228.729 712.272 229.728 712.356 230.81 712.356C231.893 712.356 233.059 712.356 234.308 712.356C235.474 712.356 236.639 712.356 237.805 712.356C238.888 712.356 239.97 712.272 240.803 712.272C242.552 712.189 243.717 712.105 243.717 712.105Z" fill="white"/>
</g>
<g opacity="0.2">
<path d="M217.487 688.419C217.487 688.419 217.071 688.419 216.238 688.335C215.406 688.335 214.323 688.168 212.907 688.168C211.575 688.168 209.91 688.085 208.244 688.002C206.496 688.002 204.664 687.918 202.832 687.918C201 687.918 199.168 687.918 197.419 688.002C195.671 688.002 194.088 688.085 192.756 688.168C191.424 688.168 190.258 688.335 189.425 688.335C188.593 688.419 188.176 688.419 188.176 688.419C188.176 688.419 188.593 688.419 189.425 688.502C190.258 688.502 191.341 688.669 192.756 688.669C194.088 688.669 195.754 688.752 197.419 688.836C199.168 688.836 201 688.919 202.832 688.919C204.664 688.919 206.496 688.919 208.244 688.836C209.993 688.836 211.575 688.752 212.907 688.669C214.24 688.669 215.406 688.502 216.238 688.502C217.071 688.502 217.487 688.419 217.487 688.419Z" fill="white"/>
</g>
<g opacity="0.2">
<path d="M179.266 688.419C179.266 688.419 167.525 688.335 149.872 688.168C141.045 688.168 130.803 688.085 119.728 688.002C108.737 688.002 96.9125 688.002 85.1714 687.918C73.4304 687.918 61.6893 687.918 50.6144 688.002C39.6228 688.085 29.2973 688.085 20.4707 688.168C2.8175 688.335 -8.92354 688.419 -8.92354 688.419C-8.92354 688.419 2.90077 688.502 20.554 688.669C29.3806 688.669 39.6228 688.752 50.6977 688.836C61.6893 688.836 73.5136 688.836 85.2547 688.919C96.9957 688.919 108.737 688.919 119.812 688.836C130.803 688.752 141.129 688.752 149.955 688.669C167.525 688.502 179.266 688.419 179.266 688.419Z" fill="white"/>
</g>
<g opacity="0.2">
<path d="M182.264 747.969C182.264 747.969 170.023 747.885 151.621 747.719C142.461 747.719 131.719 747.635 120.228 747.552C108.737 747.552 96.4961 747.552 84.1721 747.468C71.9314 747.468 59.6075 747.468 48.1163 747.552C36.625 747.635 25.8832 747.635 16.7235 747.719C-1.67911 747.885 -13.9198 747.969 -13.9198 747.969C-13.9198 747.969 -1.67911 748.052 16.7235 748.219C25.8832 748.219 36.625 748.302 48.1163 748.386C59.6075 748.386 71.8482 748.386 84.1721 748.469C96.4128 748.469 108.737 748.469 120.228 748.386C131.719 748.302 142.461 748.302 151.621 748.219C170.023 748.136 182.264 747.969 182.264 747.969Z" fill="white"/>
</g>
<g opacity="0.2">
<path d="M188.259 694.757C188.259 694.757 188.259 695.508 188.176 696.759C188.176 698.01 188.093 699.928 188.01 702.097C188.01 704.265 187.926 706.851 187.843 709.603C187.843 712.356 187.843 715.275 187.76 718.277C187.76 721.196 187.76 724.199 187.843 726.951C187.843 729.703 187.926 732.289 188.01 734.457C188.01 736.626 188.176 738.544 188.176 739.795C188.259 741.046 188.259 741.797 188.259 741.797C188.259 741.797 188.259 741.046 188.343 739.795C188.343 738.544 188.509 736.626 188.509 734.457C188.509 732.289 188.593 729.703 188.676 726.951C188.676 724.199 188.676 721.28 188.759 718.277C188.759 715.358 188.759 712.356 188.676 709.603C188.676 706.851 188.593 704.265 188.509 702.097C188.509 699.928 188.343 698.01 188.343 696.759C188.259 695.508 188.259 694.757 188.259 694.757Z" fill="white"/>
</g>
<g opacity="0.2">
<path d="M209.327 710.354C209.327 710.354 209.327 711.104 209.244 712.356C209.244 713.607 209.077 715.525 209.077 717.693C209.077 719.862 208.994 722.447 208.91 725.2C208.91 727.952 208.91 730.871 208.827 733.874C208.827 736.793 208.827 739.795 208.91 742.548C208.91 745.3 208.994 747.885 209.077 750.054C209.077 752.222 209.244 754.141 209.244 755.392C209.327 756.643 209.327 757.393 209.327 757.393C209.327 757.393 209.327 756.643 209.41 755.392C209.41 754.141 209.577 752.222 209.577 750.054C209.577 747.885 209.66 745.3 209.743 742.548C209.743 739.795 209.743 736.876 209.826 733.874C209.826 730.954 209.826 727.952 209.743 725.2C209.743 722.447 209.66 719.862 209.577 717.693C209.577 715.525 209.41 713.607 209.41 712.356C209.327 711.021 209.327 710.354 209.327 710.354Z" fill="white"/>
</g>
<g opacity="0.2">
<path d="M188.259 747.969C188.259 747.969 188.509 747.969 189.009 748.052C189.508 748.052 190.175 748.136 191.007 748.219C192.673 748.302 194.838 748.386 197.003 748.386C199.168 748.386 201.416 748.302 202.998 748.219C203.831 748.136 204.497 748.052 204.997 748.052C205.496 747.969 205.746 747.969 205.746 747.969C205.746 747.969 205.496 747.969 204.997 747.885C204.497 747.885 203.831 747.802 202.998 747.719C201.333 747.635 199.168 747.552 197.003 747.552C194.838 747.552 192.589 747.635 191.007 747.719C190.175 747.802 189.508 747.885 189.009 747.885C188.509 747.969 188.259 747.969 188.259 747.969Z" fill="white"/>
</g>
<g opacity="0.75">
<path d="M224.815 721.864C224.815 721.864 224.815 722.447 224.732 723.365C224.732 724.282 224.565 725.7 224.565 727.285C224.565 728.953 224.482 730.788 224.398 732.873C224.398 734.958 224.315 737.126 224.315 739.295C224.315 741.463 224.315 743.632 224.398 745.717C224.398 747.802 224.482 749.637 224.565 751.305C224.565 752.973 224.732 754.308 224.732 755.225C224.815 756.142 224.815 756.726 224.815 756.726C224.815 756.726 224.815 756.142 224.898 755.225C224.898 754.308 225.065 752.89 225.065 751.305C225.065 749.637 225.148 747.802 225.231 745.717C225.231 743.632 225.314 741.463 225.314 739.295C225.314 737.126 225.314 734.958 225.231 732.873C225.231 730.788 225.148 728.953 225.065 727.285C225.065 725.617 224.898 724.282 224.898 723.365C224.815 722.364 224.815 721.864 224.815 721.864Z" fill="white"/>
</g>
<g opacity="0.75">
<path d="M219.153 762.064C219.153 762.064 218.82 762.064 218.32 761.981C217.82 761.981 217.071 761.897 216.155 761.814C214.406 761.73 211.991 761.647 209.66 761.647C207.328 761.647 204.913 761.73 203.165 761.814C202.249 761.897 201.583 761.981 201 761.981C200.5 762.064 200.167 762.064 200.167 762.064C200.167 762.064 200.5 762.064 201 762.147C201.499 762.147 202.249 762.231 203.165 762.314C204.913 762.398 207.328 762.481 209.66 762.481C211.991 762.481 214.406 762.398 216.155 762.314C217.071 762.231 217.737 762.147 218.32 762.147C218.903 762.064 219.153 762.064 219.153 762.064Z" fill="white"/>
</g>
<g opacity="0.75">
<path d="M306.919 768.736C306.919 768.736 306.586 768.736 306.003 768.653C305.42 768.653 304.587 768.57 303.505 768.486C301.423 768.403 298.758 768.319 296.011 768.319C293.263 768.319 290.598 768.403 288.516 768.486C287.517 768.57 286.601 768.653 286.018 768.653C285.435 768.736 285.102 768.736 285.102 768.736C285.102 768.736 285.435 768.736 286.018 768.82C286.601 768.82 287.434 768.903 288.516 768.987C290.598 769.07 293.263 769.153 296.011 769.153C298.758 769.153 301.423 769.07 303.505 768.987C304.504 768.903 305.42 768.82 306.003 768.82C306.586 768.82 306.919 768.736 306.919 768.736Z" fill="white"/>
</g>
</g>
<defs>
<clipPath id="clip0_1_2694">
<rect width="1920" height="769" fill="white"/>
</clipPath>
<clipPath id="clip1_1_2694">
<rect width="1920" height="776.28" fill="white"/>
</clipPath>
<clipPath id="clip2_1_2694">
<rect width="328" height="99" fill="white" transform="matrix(-1 0 0 1 310 686)"/>
</clipPath>
</defs>
</svg>
